<svg fill="none" height="24" viewBox="0 0 24 24" width="24" xmlns="http://www.w3.org/2000/svg"><g clip-rule="evenodd" fill="#000001" fill-rule="evenodd"><path d="m12 2.5c-5.24671 0-9.5 4.25329-9.5 9.5 0 5.2467 4.25329 9.5 9.5 9.5 5.2467 0 9.5-4.2533 9.5-9.5 0-5.24671-4.2533-9.5-9.5-9.5zm-11 9.5c0-6.07513 4.92487-11 11-11 6.0751 0 11 4.92487 11 11 0 6.0751-4.9249 11-11 11-6.07513 0-11-4.9249-11-11z" opacity=".2"/><path d="m11.25 1.75c0-.41421.3358-.75.75-.75 6.0751 0 11 4.92487 11 11 0 .4142-.3358.75-.75.75s-.75-.3358-.75-.75c0-5.24671-4.2533-9.5-9.5-9.5-.4142 0-.75-.33579-.75-.75z"/></g></svg>