<?xml version="1.0" encoding="iso-8859-1"?>
<!-- Uploaded to: SVG Repo, www.svgrepo.com, Generator: SVG Repo Mixer Tools -->
<svg fill="rgb(156 163 175)" height="800px" width="800px" version="1.1" id="Capa_1" xmlns="http://www.w3.org/2000/svg" xmlns:xlink="http://www.w3.org/1999/xlink" 
	 viewBox="0 0 612 612" xml:space="preserve">
<g>
	<path d="M305.997,15.492C137.27,15.492,0,152.762,0,321.491c0,113.854,62.614,217.611,163.405,270.782l8.03,4.235h269.128
		l8.03-4.235C549.388,539.1,612,435.342,612,321.491C612,152.762,474.728,15.492,305.997,15.492z M422.06,523.185h-56.683
		l-12.685-90.79c8.402-1.506,16.92-3.39,25.621-5.717c4.457-1.193,8.147-4.325,10.048-8.531
		c28.393-62.849,39.673-121.492,35.5-184.551c-0.434-6.506-4.914-12.034-11.188-13.8c-36.504-10.263-71.395-15.256-106.673-15.256
		c-35.275,0-70.166,4.991-106.668,15.256c-6.276,1.766-10.756,7.292-11.19,13.8c-4.173,63.059,7.107,121.702,35.5,184.551
		c1.901,4.211,5.592,7.341,10.053,8.531c8.699,2.327,17.214,4.21,25.613,5.713l-12.685,90.793h-56.68
		c-50.277-28.956-87.083-74.878-104.794-128.357c30.705-4.391,61.43-7.865,92.167-10.425
		c-11.724-35.065-18.387-69.522-20.248-104.762c-30.498,6.999-59.386,17.771-83.604,34.315
		c3.993-124.822,106.763-225.14,232.538-225.14c125.788,0,228.57,100.337,232.545,225.177c-2.404-1.649-4.952-3.26-7.66-4.819
		c-23.126-13.318-49.007-22.5-75.983-28.826c-1.913,34.98-8.561,69.203-20.201,104.023c30.738,2.552,61.469,6.016,92.177,10.399
		C509.169,448.276,472.355,494.221,422.06,523.185z"/>
</g>
</svg>